<svg xmlns="http://www.w3.org/2000/svg" viewBox="0 0 1026 601" preserveAspectRatio="none">
  <path
    d="M160 85 H835
       C856 85 875 99 881 118
       C911 120 934 140 934 166
       V489
       C934 515 911 535 881 536
       C875 556 856 569 835 569
       H160
       C139 569 120 556 114 536
       C84 535 61 515 61 489
       V166
       C61 140 84 120 114 118
       C120 99 139 85 160 85
       Z"
    fill="none"
    stroke="#B4A667"
    stroke-width="6"
    stroke-linejoin="round"
  />
  <path
    d="M160 117 H835
       C844 117 851 124 851 133
       V151
       H883
       C893 151 901 159 901 169
       V486
       C901 496 893 503 883 503
       H851
       V520
       C851 530 844 537 835 537
       H160
       C151 537 144 530 144 520
       V503
       H111
       C101 503 94 496 94 486
       V169
       C94 159 101 151 111 151
       H144
       V133
       C144 124 151 117 160 117
       Z"
    fill="none"
    stroke="#EFD4E3"
    stroke-width="5"
    stroke-linejoin="round"
  />
</svg>
